<?xml version="1.0" encoding="UTF-8" standalone="no"?>
<!-- Created with Inkscape (http://www.inkscape.org/) -->

<svg
   xmlns:dc="http://purl.org/dc/elements/1.1/"
   xmlns:cc="http://creativecommons.org/ns#"
   xmlns:rdf="http://www.w3.org/1999/02/22-rdf-syntax-ns#"
   xmlns:svg="http://www.w3.org/2000/svg"
   xmlns="http://www.w3.org/2000/svg"
   xmlns:sodipodi="http://sodipodi.sourceforge.net/DTD/sodipodi-0.dtd"
   xmlns:inkscape="http://www.inkscape.org/namespaces/inkscape"
   width="12.202569mm"
   height="8.7302933mm"
   viewBox="0 0 43.237449 30.93411"
   id="svg4861"
   version="1.1"
   inkscape:version="0.91 r13725"
   sodipodi:docname="CookPizzaButton.svg">
  <defs
     id="defs4863" />
  <sodipodi:namedview
     id="base"
     pagecolor="#ffffff"
     bordercolor="#666666"
     borderopacity="1.0"
     inkscape:pageopacity="0.0"
     inkscape:pageshadow="2"
     inkscape:zoom="2.1496046"
     inkscape:cx="-83.119114"
     inkscape:cy="22.650241"
     inkscape:document-units="px"
     inkscape:current-layer="layer1"
     showgrid="false"
     fit-margin-top="0"
     fit-margin-left="0"
     fit-margin-right="0"
     fit-margin-bottom="0"
     inkscape:showpageshadow="false"
     inkscape:window-width="1920"
     inkscape:window-height="1027"
     inkscape:window-x="-8"
     inkscape:window-y="-8"
     inkscape:window-maximized="1" />
  <metadata
     id="metadata4866">
    <rdf:RDF>
      <cc:Work
         rdf:about="">
        <dc:format>image/svg+xml</dc:format>
        <dc:type
           rdf:resource="http://purl.org/dc/dcmitype/StillImage" />
        <dc:title />
      </cc:Work>
    </rdf:RDF>
  </metadata>
  <g
     inkscape:label="Layer 1"
     inkscape:groupmode="layer"
     id="layer1"
     transform="translate(-378.38129,-485.46658)">
    <rect
       style="display:inline;opacity:1;fill:#1d1d1d;fill-opacity:1;fill-rule:evenodd;stroke:none;stroke-width:2;stroke-linecap:round;stroke-linejoin:miter;stroke-miterlimit:4;stroke-dasharray:none;stroke-opacity:1"
       id="rect4255"
       width="43.23745"
       height="30.934111"
       x="378.38129"
       y="485.46658"
       ry="8.9926424" />
    <g
       style="font-style:normal;font-weight:normal;font-size:10.39225864px;line-height:125%;font-family:sans-serif;letter-spacing:0px;word-spacing:0px;display:inline;fill:#ffffff;fill-opacity:1;stroke:none;stroke-width:1px;stroke-linecap:butt;stroke-linejoin:miter;stroke-opacity:1"
       id="text4249">
      <path
         id="path4154"
         style="font-style:normal;font-variant:normal;font-weight:normal;font-stretch:normal;font-family:'MS Serif';-inkscape-font-specification:'MS Serif'"
         d="m 415.78294,510.55511 -1.07068,0 -0.74086,-2.10585 -3.26788,0 -0.74085,2.10585 -1.01994,0 2.75029,-7.5557 1.33963,0 2.75029,7.5557 z m -2.12107,-2.96849 -1.32441,-3.70935 -1.32948,3.70935 2.65389,0 z m -5.4397,2.96849 -5.89639,0 0,-0.93368 4.63288,-5.72893 -4.46035,0 0,-0.89309 5.61222,0 0,0.90831 -4.67854,5.75431 4.79018,0 0,0.89308 z m -7.08379,0 -5.89639,0 0,-0.93368 4.63288,-5.72893 -4.46035,0 0,-0.89309 5.61223,0 0,0.90831 -4.67855,5.75431 4.79018,0 0,0.89308 z m -7.24109,0 -2.98371,0 0,-0.7713 0.9895,0 0,-6.0131 -0.9895,0 0,-0.7713 2.98371,0 0,0.7713 -0.98949,0 0,6.0131 0.98949,0 0,0.7713 z m -3.99351,-5.27224 q 0,0.50236 -0.1776,0.93368 -0.17253,0.42624 -0.48714,0.74085 -0.39072,0.39073 -0.92353,0.58863 -0.5328,0.19282 -1.3447,0.19282 l -1.00472,0 0,2.81626 -1.00472,0 0,-7.5557 2.05004,0 q 0.67996,0 1.15187,0.11671 0.47192,0.11164 0.83727,0.35521 0.43132,0.28923 0.66474,0.72055 0.23849,0.43132 0.23849,1.09099 z m -1.04531,0.0254 q 0,-0.39073 -0.13701,-0.67996 -0.13701,-0.28924 -0.41609,-0.47192 -0.24357,-0.1573 -0.55818,-0.22327 -0.30954,-0.071 -0.78653,-0.071 l -0.99457,0 0,3.01924 0.84742,0 q 0.60892,0 0.98949,-0.10656 0.38058,-0.11164 0.61908,-0.35013 0.23849,-0.24357 0.3349,-0.51251 0.10149,-0.26894 0.10149,-0.60385 z m 25.80304,-7.74348 -1.3041,0 -2.98879,-3.36429 -0.75101,0.80174 0,2.56255 -1.00472,0 0,-7.5557 1.00472,0 0,3.94277 3.66876,-3.94277 1.21784,0 -3.37444,3.55204 3.53174,4.00366 z m -8.62131,-6.68799 q 0.46177,0.50744 0.70533,1.24322 0.24865,0.73578 0.24865,1.66946 0,0.93368 -0.25372,1.67453 -0.24864,0.73578 -0.70026,1.22799 -0.46684,0.51251 -1.10621,0.7713 -0.63429,0.25879 -1.45126,0.25879 -0.79667,0 -1.45126,-0.26386 -0.64952,-0.26387 -1.10621,-0.76623 -0.45669,-0.50236 -0.70533,-1.23306 -0.24357,-0.73071 -0.24357,-1.66946 0,-0.92353 0.24357,-1.65424 0.24357,-0.73578 0.71041,-1.25844 0.44654,-0.49728 1.1062,-0.76115 0.66474,-0.26387 1.44619,-0.26387 0.8119,0 1.45634,0.26894 0.64951,0.26387 1.10113,0.75608 z m -0.0913,2.91268 q 0,-1.47156 -0.65966,-2.26824 -0.65967,-0.80174 -1.80139,-0.80174 -1.15188,0 -1.81155,0.80174 -0.65459,0.79668 -0.65459,2.26824 0,1.48678 0.66982,2.27838 0.66981,0.78652 1.79632,0.78652 1.1265,0 1.79124,-0.78652 0.66981,-0.7916 0.66981,-2.27838 z m -8.08854,-2.91268 q 0.46176,0.50744 0.70533,1.24322 0.24864,0.73578 0.24864,1.66946 0,0.93368 -0.25371,1.67453 -0.24865,0.73578 -0.70026,1.22799 -0.46684,0.51251 -1.10621,0.7713 -0.63429,0.25879 -1.45126,0.25879 -0.79668,0 -1.45127,-0.26386 -0.64951,-0.26387 -1.1062,-0.76623 -0.45669,-0.50236 -0.70534,-1.23306 -0.24357,-0.73071 -0.24357,-1.66946 0,-0.92353 0.24357,-1.65424 0.24357,-0.73578 0.71041,-1.25844 0.44654,-0.49728 1.10621,-0.76115 0.66474,-0.26387 1.44619,-0.26387 0.81189,0 1.45633,0.26894 0.64952,0.26387 1.10114,0.75608 z m -0.0913,2.91268 q 0,-1.47156 -0.65967,-2.26824 -0.65966,-0.80174 -1.80139,-0.80174 -1.15187,0 -1.81154,0.80174 -0.65459,0.79668 -0.65459,2.26824 0,1.48678 0.66981,2.27838 0.66982,0.78652 1.79632,0.78652 1.12651,0 1.79125,-0.78652 0.66981,-0.7916 0.66981,-2.27838 z m -6.97219,3.22728 q -0.27909,0.12178 -0.50744,0.22835 -0.22327,0.10656 -0.58862,0.22327 -0.30954,0.0964 -0.67489,0.16238 -0.36028,0.071 -0.79667,0.071 -0.82204,0 -1.49693,-0.22835 -0.66982,-0.23342 -1.1671,-0.72563 -0.48714,-0.48206 -0.76115,-1.22292 -0.27402,-0.74593 -0.27402,-1.73035 0,-0.93368 0.26387,-1.66946 0.26386,-0.73578 0.76115,-1.24321 0.48206,-0.49222 1.16203,-0.75101 0.68503,-0.25879 1.51722,-0.25879 0.60893,0 1.21277,0.14716 0.60892,0.14715 1.34978,0.51758 l 0,1.19247 -0.0761,0 q -0.62414,-0.52266 -1.23814,-0.76115 -0.61399,-0.23849 -1.31425,-0.23849 -0.5734,0 -1.03517,0.18775 -0.45669,0.18267 -0.81697,0.5734 -0.35013,0.38057 -0.54803,0.96412 -0.19282,0.57848 -0.19282,1.33963 0,0.79667 0.21312,1.37007 0.2182,0.5734 0.55818,0.93368 0.3552,0.3755 0.82712,0.55818 0.47698,0.1776 1.00472,0.1776 0.72563,0 1.35992,-0.24864 0.63429,-0.24864 1.1874,-0.74593 l 0.071,0 0,1.17725 z" />
    </g>
  </g>
</svg>
