<?xml version="1.0" encoding="UTF-8" standalone="no"?>
<!-- Created with Inkscape (http://www.inkscape.org/) -->

<svg
   xmlns:dc="http://purl.org/dc/elements/1.1/"
   xmlns:cc="http://creativecommons.org/ns#"
   xmlns:rdf="http://www.w3.org/1999/02/22-rdf-syntax-ns#"
   xmlns:svg="http://www.w3.org/2000/svg"
   xmlns="http://www.w3.org/2000/svg"
   xmlns:sodipodi="http://sodipodi.sourceforge.net/DTD/sodipodi-0.dtd"
   xmlns:inkscape="http://www.inkscape.org/namespaces/inkscape"
   width="13.024183mm"
   height="21.260447mm"
   viewBox="0 0 46.148681 75.332291"
   id="svg4263"
   version="1.1"
   inkscape:version="0.91 r13725"
   sodipodi:docname="GarlicOliveOil.svg">
  <defs
     id="defs4265" />
  <sodipodi:namedview
     id="base"
     pagecolor="#ffffff"
     bordercolor="#666666"
     borderopacity="1.0"
     inkscape:pageopacity="0.0"
     inkscape:pageshadow="2"
     inkscape:zoom="4.6622146"
     inkscape:cx="9.442359"
     inkscape:cy="5.4477181"
     inkscape:document-units="px"
     inkscape:current-layer="layer1"
     showgrid="false"
     fit-margin-top="0"
     fit-margin-left="0"
     fit-margin-right="0"
     fit-margin-bottom="0"
     inkscape:window-width="1920"
     inkscape:window-height="1027"
     inkscape:window-x="-8"
     inkscape:window-y="-8"
     inkscape:window-maximized="1" />
  <metadata
     id="metadata4268">
    <rdf:RDF>
      <cc:Work
         rdf:about="">
        <dc:format>image/svg+xml</dc:format>
        <dc:type
           rdf:resource="http://purl.org/dc/dcmitype/StillImage" />
        <dc:title></dc:title>
      </cc:Work>
    </rdf:RDF>
  </metadata>
  <g
     inkscape:label="Layer 1"
     inkscape:groupmode="layer"
     id="layer1"
     transform="translate(-336.92566,-546.12462)">
    <text
       xml:space="preserve"
       style="font-style:normal;font-weight:normal;font-size:17.91004372px;line-height:125%;font-family:sans-serif;text-align:center;letter-spacing:0px;word-spacing:0px;text-anchor:middle;display:inline;fill:#dcdcdc;fill-opacity:1;stroke:none;stroke-width:1px;stroke-linecap:butt;stroke-linejoin:miter;stroke-opacity:1"
       x="360.22888"
       y="605.6427"
       id="text4213"
       sodipodi:linespacing="125%"><tspan
         sodipodi:role="line"
         id="tspan4215"
         x="362.42615"
         y="605.6427"
         style="font-size:12.5px;text-align:center;text-anchor:middle">Garlic </tspan><tspan
         sodipodi:role="line"
         x="360.22888"
         y="621.2677"
         style="font-size:12.5px;text-align:center;text-anchor:middle"
         id="tspan5076">olive oil</tspan></text>
    <path
       style="display:inline;opacity:1;fill:#f9da7c;fill-opacity:1;fill-rule:evenodd;stroke:none;stroke-width:2;stroke-linecap:round;stroke-linejoin:miter;stroke-miterlimit:4;stroke-dasharray:none;stroke-opacity:1"
       d="m 372.13017,583.61344 c 0,4.1368 -5.22893,7.49034 -11.67915,7.49034 -6.45021,0 -11.67915,-3.35354 -11.67915,-7.49034 0,-0.70454 0.1815,-2.0815 0.60706,-3.43958 0.69,-2.20201 1.7569,-4.45413 1.7569,-4.45413 0,0 5.74468,0.40336 9.31519,0.40336 3.66478,0 9.17194,-0.46307 9.17194,-0.46307 0,0 1.13378,2.38905 1.86727,4.62396 0.44498,1.35583 0.63994,2.65492 0.63994,3.32946 z"
       id="path4265"
       inkscape:connector-curvature="0"
       sodipodi:nodetypes="sssscscss" />
    <path
       style="display:inline;fill:#c5b299;fill-opacity:1;fill-rule:evenodd;stroke:none;stroke-width:1px;stroke-linecap:butt;stroke-linejoin:miter;stroke-opacity:1"
       d="m 357.22229,550.01039 0,2.88159 c 2.05737,1.34042 4.11473,1.31917 6.17209,-0.0422 l -0.002,-2.7587"
       id="path4270-1"
       inkscape:connector-curvature="0"
       sodipodi:nodetypes="cccc" />
    <path
       inkscape:connector-curvature="0"
       style="display:inline;opacity:1;fill:none;fill-opacity:1;fill-rule:evenodd;stroke:#dcdcdc;stroke-width:0.58283818;stroke-linecap:round;stroke-linejoin:miter;stroke-miterlimit:4;stroke-dasharray:none;stroke-opacity:1"
       d="m 363.7892,550.45273 a 3.4847881,1.4171754 0 0 1 -3.48478,1.41718 3.4847881,1.4171754 0 0 1 -3.48479,-1.41718 3.4847881,1.4171754 0 0 1 3.48479,-1.41718 3.4847881,1.4171754 0 0 1 3.48478,1.41718 z"
       id="path4267-6" />
    <path
       inkscape:connector-curvature="0"
       style="display:inline;opacity:1;fill:none;fill-opacity:1;fill-rule:evenodd;stroke:#dcdcdc;stroke-width:0.58283818;stroke-linecap:round;stroke-linejoin:miter;stroke-miterlimit:4;stroke-dasharray:none;stroke-opacity:1"
       d="m 363.79313,551.30741 a 3.4847881,1.4171754 0 0 1 -3.48479,1.41718 3.4847881,1.4171754 0 0 1 -3.48479,-1.41718 3.4847881,1.4171754 0 0 1 3.48479,-1.41718 3.4847881,1.4171754 0 0 1 3.48479,1.41718 z"
       id="path4267-6-3" />
    <path
       style="display:inline;fill:#c5b299;fill-opacity:1;fill-rule:evenodd;stroke:none;stroke-width:1px;stroke-linecap:butt;stroke-linejoin:miter;stroke-opacity:1"
       d="m 357.2253,547.7326 0,2.84193 c 2.05737,1.32197 4.11473,1.30101 6.1721,-0.0416 l -0.002,-2.72073"
       id="path4270"
       inkscape:connector-curvature="0"
       sodipodi:nodetypes="cccc" />
    <path
       inkscape:connector-curvature="0"
       style="display:inline;opacity:1;fill:#e1d5c5;fill-opacity:1;fill-rule:evenodd;stroke:none;stroke-width:2;stroke-linecap:round;stroke-linejoin:miter;stroke-miterlimit:4;stroke-dasharray:none;stroke-opacity:1"
       d="m 363.39517,547.81334 a 3.0866958,1.6887175 0 0 1 -3.0867,1.68872 3.0866958,1.6887175 0 0 1 -3.08669,-1.68872 3.0866958,1.6887175 0 0 1 3.08669,-1.68872 3.0866958,1.6887175 0 0 1 3.0867,1.68872 z"
       id="path4267" />
    <path
       style="display:inline;fill:none;fill-opacity:1;fill-rule:evenodd;stroke:#dcdcdc;stroke-width:0.44909132;stroke-linecap:butt;stroke-linejoin:miter;stroke-miterlimit:4;stroke-dasharray:none;stroke-opacity:1"
       d="m 357.25226,552.16059 c 0.57031,10.07894 -4.25652,18.73 -7.83217,27.67482 -0.39894,0.99799 -0.64652,2.04429 -0.65693,3.09316"
       id="path4328"
       inkscape:connector-curvature="0"
       sodipodi:nodetypes="csc" />
    <path
       style="display:inline;fill:none;fill-opacity:1;fill-rule:evenodd;stroke:#dcdcdc;stroke-width:0.44909132;stroke-linecap:butt;stroke-linejoin:miter;stroke-miterlimit:4;stroke-dasharray:none;stroke-opacity:1"
       d="m 363.58014,551.70561 c -0.57329,10.13151 4.20168,19.24483 7.82043,28.22962 0.47507,1.17954 0.80128,2.14737 0.86426,3.24726"
       id="path4328-3"
       inkscape:connector-curvature="0"
       sodipodi:nodetypes="csc" />
    <ellipse
       style="display:inline;opacity:1;fill:#e8e8b2;fill-opacity:1;fill-rule:evenodd;stroke:none;stroke-width:2;stroke-linecap:round;stroke-linejoin:miter;stroke-miterlimit:4;stroke-dasharray:none;stroke-opacity:1"
       id="path4265-9"
       cx="360.40616"
       cy="576.35327"
       rx="9.1652317"
       ry="4.0153875" />
    <path
       style="display:inline;fill:none;fill-rule:evenodd;stroke:#dcdcdc;stroke-width:0.44909132;stroke-linecap:butt;stroke-linejoin:miter;stroke-miterlimit:4;stroke-dasharray:none;stroke-opacity:1"
       d="m 348.76316,582.78806 c -0.32997,10.82186 23.39967,10.84776 23.50167,0.25393"
       id="path4360"
       inkscape:connector-curvature="0"
       sodipodi:nodetypes="cc" />
  </g>
</svg>
