<?xml version="1.0" encoding="UTF-8" standalone="no"?>
<!-- Created with Inkscape (http://www.inkscape.org/) -->

<svg
   xmlns:dc="http://purl.org/dc/elements/1.1/"
   xmlns:cc="http://creativecommons.org/ns#"
   xmlns:rdf="http://www.w3.org/1999/02/22-rdf-syntax-ns#"
   xmlns:svg="http://www.w3.org/2000/svg"
   xmlns="http://www.w3.org/2000/svg"
   xmlns:sodipodi="http://sodipodi.sourceforge.net/DTD/sodipodi-0.dtd"
   xmlns:inkscape="http://www.inkscape.org/namespaces/inkscape"
   width="6.7603855mm"
   height="12.713033mm"
   viewBox="0 0 23.954122 45.046179"
   id="svg4403"
   version="1.1"
   inkscape:version="0.91 r13725"
   sodipodi:docname="Oil.svg">
  <defs
     id="defs4405" />
  <sodipodi:namedview
     id="base"
     pagecolor="#ffffff"
     bordercolor="#666666"
     borderopacity="1.0"
     inkscape:pageopacity="0.0"
     inkscape:pageshadow="2"
     inkscape:zoom="9.96"
     inkscape:cx="10.171143"
     inkscape:cy="20.390973"
     inkscape:document-units="px"
     inkscape:current-layer="layer1"
     showgrid="false"
     fit-margin-top="0"
     fit-margin-left="0"
     fit-margin-right="0"
     fit-margin-bottom="0"
     inkscape:window-width="1920"
     inkscape:window-height="1027"
     inkscape:window-x="-8"
     inkscape:window-y="-8"
     inkscape:window-maximized="1" />
  <metadata
     id="metadata4408">
    <rdf:RDF>
      <cc:Work
         rdf:about="">
        <dc:format>image/svg+xml</dc:format>
        <dc:type
           rdf:resource="http://purl.org/dc/dcmitype/StillImage" />
        <dc:title></dc:title>
      </cc:Work>
    </rdf:RDF>
  </metadata>
  <g
     inkscape:label="Layer 1"
     inkscape:groupmode="layer"
     id="layer1"
     transform="translate(-373.73722,-569.83912)">
    <path
       style="opacity:1;fill:#f9da7c;fill-opacity:1;fill-rule:evenodd;stroke:none;stroke-width:2;stroke-linecap:round;stroke-linejoin:miter;stroke-miterlimit:4;stroke-dasharray:none;stroke-opacity:1"
       d="m 397.33215,607.32794 c 0,4.1368 -5.22893,7.49034 -11.67915,7.49034 -6.45021,0 -11.67915,-3.35354 -11.67915,-7.49034 0,-0.70454 0.1815,-2.0815 0.60706,-3.43958 0.69,-2.20201 1.7569,-4.45413 1.7569,-4.45413 0,0 5.74468,0.40336 9.31519,0.40336 3.66478,0 9.17194,-0.46307 9.17194,-0.46307 0,0 1.13378,2.38905 1.86727,4.62396 0.44498,1.35583 0.63994,2.65492 0.63994,3.32946 z"
       id="path4265"
       inkscape:connector-curvature="0"
       sodipodi:nodetypes="sssscscss" />
    <path
       style="fill:#c5b299;fill-opacity:1;fill-rule:evenodd;stroke:none;stroke-width:1px;stroke-linecap:butt;stroke-linejoin:miter;stroke-opacity:1"
       d="m 382.42427,573.72489 0,2.88159 c 2.05737,1.34042 4.11473,1.31917 6.17209,-0.0422 l -0.002,-2.7587"
       id="path4270-1"
       inkscape:connector-curvature="0"
       sodipodi:nodetypes="cccc" />
    <path
       inkscape:connector-curvature="0"
       style="opacity:1;fill:none;fill-opacity:1;fill-rule:evenodd;stroke:#dcdcdc;stroke-width:0.58283818;stroke-linecap:round;stroke-linejoin:miter;stroke-miterlimit:4;stroke-dasharray:none;stroke-opacity:1"
       d="m 388.99118,574.16723 a 3.4847881,1.4171754 0 0 1 -3.48478,1.41718 3.4847881,1.4171754 0 0 1 -3.48479,-1.41718 3.4847881,1.4171754 0 0 1 3.48479,-1.41718 3.4847881,1.4171754 0 0 1 3.48478,1.41718 z"
       id="path4267-6" />
    <path
       inkscape:connector-curvature="0"
       style="opacity:1;fill:none;fill-opacity:1;fill-rule:evenodd;stroke:#dcdcdc;stroke-width:0.58283818;stroke-linecap:round;stroke-linejoin:miter;stroke-miterlimit:4;stroke-dasharray:none;stroke-opacity:1"
       d="m 388.99511,575.02191 a 3.4847881,1.4171754 0 0 1 -3.48479,1.41718 3.4847881,1.4171754 0 0 1 -3.48479,-1.41718 3.4847881,1.4171754 0 0 1 3.48479,-1.41718 3.4847881,1.4171754 0 0 1 3.48479,1.41718 z"
       id="path4267-6-3" />
    <path
       style="fill:#c5b299;fill-opacity:1;fill-rule:evenodd;stroke:none;stroke-width:1px;stroke-linecap:butt;stroke-linejoin:miter;stroke-opacity:1"
       d="m 382.42728,571.4471 0,2.84193 c 2.05737,1.32197 4.11473,1.30101 6.1721,-0.0416 l -0.002,-2.72073"
       id="path4270"
       inkscape:connector-curvature="0"
       sodipodi:nodetypes="cccc" />
    <path
       inkscape:connector-curvature="0"
       style="opacity:1;fill:#e1d5c5;fill-opacity:1;fill-rule:evenodd;stroke:none;stroke-width:2;stroke-linecap:round;stroke-linejoin:miter;stroke-miterlimit:4;stroke-dasharray:none;stroke-opacity:1"
       d="m 388.59715,571.52784 a 3.0866958,1.6887175 0 0 1 -3.0867,1.68872 3.0866958,1.6887175 0 0 1 -3.08669,-1.68872 3.0866958,1.6887175 0 0 1 3.08669,-1.68872 3.0866958,1.6887175 0 0 1 3.0867,1.68872 z"
       id="path4267" />
    <path
       style="fill:none;fill-opacity:1;fill-rule:evenodd;stroke:#dcdcdc;stroke-width:0.44909132;stroke-linecap:butt;stroke-linejoin:miter;stroke-miterlimit:4;stroke-dasharray:none;stroke-opacity:1"
       d="m 382.45424,575.87509 c 0.57031,10.07894 -4.25652,18.73 -7.83217,27.67482 -0.39894,0.99799 -0.64652,2.04429 -0.65693,3.09316"
       id="path4328"
       inkscape:connector-curvature="0"
       sodipodi:nodetypes="csc" />
    <path
       style="fill:none;fill-opacity:1;fill-rule:evenodd;stroke:#dcdcdc;stroke-width:0.44909132;stroke-linecap:butt;stroke-linejoin:miter;stroke-miterlimit:4;stroke-dasharray:none;stroke-opacity:1"
       d="m 388.78212,575.42011 c -0.57329,10.13151 4.20168,19.24483 7.82043,28.22962 0.47507,1.17954 0.80128,2.14737 0.86426,3.24726"
       id="path4328-3"
       inkscape:connector-curvature="0"
       sodipodi:nodetypes="csc" />
    <ellipse
       style="opacity:1;fill:#e8e8b2;fill-opacity:1;fill-rule:evenodd;stroke:none;stroke-width:2;stroke-linecap:round;stroke-linejoin:miter;stroke-miterlimit:4;stroke-dasharray:none;stroke-opacity:1"
       id="path4265-9"
       cx="385.60815"
       cy="600.06775"
       rx="9.1652317"
       ry="4.0153875" />
    <path
       style="fill:none;fill-rule:evenodd;stroke:#dcdcdc;stroke-width:0.44909132;stroke-linecap:butt;stroke-linejoin:miter;stroke-miterlimit:4;stroke-dasharray:none;stroke-opacity:1"
       d="m 373.96514,606.50256 c -0.32997,10.82186 23.39967,10.84776 23.50167,0.25393"
       id="path4360"
       inkscape:connector-curvature="0"
       sodipodi:nodetypes="cc" />
  </g>
</svg>
