<?xml version="1.0" encoding="UTF-8" standalone="no"?>
<!-- Created with Inkscape (http://www.inkscape.org/) -->

<svg
   xmlns:dc="http://purl.org/dc/elements/1.1/"
   xmlns:cc="http://creativecommons.org/ns#"
   xmlns:rdf="http://www.w3.org/1999/02/22-rdf-syntax-ns#"
   xmlns:svg="http://www.w3.org/2000/svg"
   xmlns="http://www.w3.org/2000/svg"
   xmlns:sodipodi="http://sodipodi.sourceforge.net/DTD/sodipodi-0.dtd"
   xmlns:inkscape="http://www.inkscape.org/namespaces/inkscape"
   width="5.631496mm"
   height="10.590135mm"
   viewBox="0 0 19.95412 37.524099"
   id="svg4403"
   version="1.1"
   inkscape:version="0.91 r13725"
   sodipodi:docname="Oil.svg">
  <defs
     id="defs4405" />
  <sodipodi:namedview
     id="base"
     pagecolor="#ffffff"
     bordercolor="#666666"
     borderopacity="1.0"
     inkscape:pageopacity="0.0"
     inkscape:pageshadow="2"
     inkscape:zoom="1"
     inkscape:cx="-4.6380961"
     inkscape:cy="20.390975"
     inkscape:document-units="px"
     inkscape:current-layer="layer1"
     showgrid="false"
     fit-margin-top="0"
     fit-margin-left="0"
     fit-margin-right="0"
     fit-margin-bottom="0"
     inkscape:window-width="686"
     inkscape:window-height="405"
     inkscape:window-x="843"
     inkscape:window-y="295"
     inkscape:window-maximized="0" />
  <metadata
     id="metadata4408">
    <rdf:RDF>
      <cc:Work
         rdf:about="">
        <dc:format>image/svg+xml</dc:format>
        <dc:type
           rdf:resource="http://purl.org/dc/dcmitype/StillImage" />
        <dc:title></dc:title>
      </cc:Work>
    </rdf:RDF>
  </metadata>
  <g
     inkscape:label="Layer 1"
     inkscape:groupmode="layer"
     id="layer1"
     transform="translate(-373.73722,-577.3612)">
    <path
       style="opacity:1;fill:#f9da7c;fill-opacity:1;fill-rule:evenodd;stroke:none;stroke-width:2;stroke-linecap:round;stroke-linejoin:miter;stroke-miterlimit:4;stroke-dasharray:none;stroke-opacity:1"
       d="m 393.39213,608.58991 c 0,3.44602 -4.35577,6.23956 -9.7289,6.23956 -5.37311,0 -9.72889,-2.79354 -9.72889,-6.23956 0,-0.58689 0.15119,-1.73392 0.50569,-2.86522 0.57478,-1.8343 1.46352,-3.71035 1.46352,-3.71035 0,0 4.7854,0.336 7.75968,0.336 3.05282,0 7.64036,-0.38574 7.64036,-0.38574 0,0 0.94445,1.99011 1.55546,3.85183 0.37068,1.12942 0.53308,2.21158 0.53308,2.77348 z"
       id="path4265"
       inkscape:connector-curvature="0"
       sodipodi:nodetypes="sssscscss" />
    <path
       style="fill:#c5b299;fill-opacity:1;fill-rule:evenodd;stroke:none;stroke-width:1px;stroke-linecap:butt;stroke-linejoin:miter;stroke-opacity:1"
       d="m 380.97366,580.5981 0,2.4004 c 1.71381,1.11659 3.42762,1.09889 5.14143,-0.0352 l -0.002,-2.29804"
       id="path4270-1"
       inkscape:connector-curvature="0"
       sodipodi:nodetypes="cccc" />
    <path
       inkscape:connector-curvature="0"
       style="opacity:1;fill:none;fill-opacity:1;fill-rule:evenodd;stroke:#dcdcdc;stroke-width:0.48551244;stroke-linecap:round;stroke-linejoin:miter;stroke-miterlimit:4;stroke-dasharray:none;stroke-opacity:1"
       d="m 386.44398,580.96657 a 2.9028777,1.1805271 0 0 1 -2.90287,1.18053 2.9028777,1.1805271 0 0 1 -2.90288,-1.18053 2.9028777,1.1805271 0 0 1 2.90288,-1.18053 2.9028777,1.1805271 0 0 1 2.90287,1.18053 z"
       id="path4267-6" />
    <path
       inkscape:connector-curvature="0"
       style="opacity:1;fill:none;fill-opacity:1;fill-rule:evenodd;stroke:#dcdcdc;stroke-width:0.48551244;stroke-linecap:round;stroke-linejoin:miter;stroke-miterlimit:4;stroke-dasharray:none;stroke-opacity:1"
       d="m 386.44726,581.67853 a 2.9028777,1.1805271 0 0 1 -2.90288,1.18053 2.9028777,1.1805271 0 0 1 -2.90288,-1.18053 2.9028777,1.1805271 0 0 1 2.90288,-1.18053 2.9028777,1.1805271 0 0 1 2.90288,1.18053 z"
       id="path4267-6-3" />
    <path
       style="fill:#c5b299;fill-opacity:1;fill-rule:evenodd;stroke:none;stroke-width:1px;stroke-linecap:butt;stroke-linejoin:miter;stroke-opacity:1"
       d="m 380.97616,578.70067 0,2.36736 c 1.71382,1.10122 3.42763,1.08376 5.14145,-0.0347 l -0.002,-2.26641"
       id="path4270"
       inkscape:connector-curvature="0"
       sodipodi:nodetypes="cccc" />
    <path
       inkscape:connector-curvature="0"
       style="opacity:1;fill:#e1d5c5;fill-opacity:1;fill-rule:evenodd;stroke:none;stroke-width:2;stroke-linecap:round;stroke-linejoin:miter;stroke-miterlimit:4;stroke-dasharray:none;stroke-opacity:1"
       d="m 386.11575,578.76792 a 2.5712612,1.4067255 0 0 1 -2.57126,1.40673 2.5712612,1.4067255 0 0 1 -2.57126,-1.40673 2.5712612,1.4067255 0 0 1 2.57126,-1.40672 2.5712612,1.4067255 0 0 1 2.57126,1.40672 z"
       id="path4267" />
    <path
       style="fill:none;fill-opacity:1;fill-rule:evenodd;stroke:#dcdcdc;stroke-width:0.3740994;stroke-linecap:butt;stroke-linejoin:miter;stroke-miterlimit:4;stroke-dasharray:none;stroke-opacity:1"
       d="m 380.99862,582.38924 c 0.47508,8.3959 -3.54574,15.60236 -6.52431,23.05352 -0.33232,0.83134 -0.53856,1.70292 -0.54723,2.57665"
       id="path4328"
       inkscape:connector-curvature="0"
       sodipodi:nodetypes="csc" />
    <path
       style="fill:none;fill-opacity:1;fill-rule:evenodd;stroke:#dcdcdc;stroke-width:0.3740994;stroke-linecap:butt;stroke-linejoin:miter;stroke-miterlimit:4;stroke-dasharray:none;stroke-opacity:1"
       d="m 386.26983,582.01024 c -0.47755,8.43969 3.50006,16.03121 6.51453,23.51567 0.39574,0.98257 0.66748,1.78879 0.71994,2.70501"
       id="path4328-3"
       inkscape:connector-curvature="0"
       sodipodi:nodetypes="csc" />
    <ellipse
       style="opacity:1;fill:#e8e8b2;fill-opacity:1;fill-rule:evenodd;stroke:none;stroke-width:2;stroke-linecap:round;stroke-linejoin:miter;stroke-miterlimit:4;stroke-dasharray:none;stroke-opacity:1"
       id="path4265-9"
       cx="383.62589"
       cy="602.54205"
       rx="7.6347675"
       ry="3.3448746" />
    <path
       style="fill:none;fill-rule:evenodd;stroke:#dcdcdc;stroke-width:0.3740994;stroke-linecap:butt;stroke-linejoin:miter;stroke-miterlimit:4;stroke-dasharray:none;stroke-opacity:1"
       d="m 373.92708,607.90236 c -0.27487,9.01476 19.49226,9.03634 19.57722,0.21153"
       id="path4360"
       inkscape:connector-curvature="0"
       sodipodi:nodetypes="cc" />
  </g>
</svg>
