<?xml version="1.0" encoding="UTF-8" standalone="no"?>
<!-- Created with Inkscape (http://www.inkscape.org/) -->

<svg
   xmlns:dc="http://purl.org/dc/elements/1.1/"
   xmlns:cc="http://creativecommons.org/ns#"
   xmlns:rdf="http://www.w3.org/1999/02/22-rdf-syntax-ns#"
   xmlns:svg="http://www.w3.org/2000/svg"
   xmlns="http://www.w3.org/2000/svg"
   xmlns:sodipodi="http://sodipodi.sourceforge.net/DTD/sodipodi-0.dtd"
   xmlns:inkscape="http://www.inkscape.org/namespaces/inkscape"
   width="10.645044mm"
   height="17.705688mm"
   viewBox="0 0 37.718661 62.736691"
   id="svg7410"
   version="1.1"
   inkscape:version="0.91 r13725"
   sodipodi:docname="OrderSlip.svg">
  <defs
     id="defs7412" />
  <sodipodi:namedview
     id="base"
     pagecolor="#ffffff"
     bordercolor="#666666"
     borderopacity="1.0"
     inkscape:pageopacity="0.0"
     inkscape:pageshadow="2"
     inkscape:zoom="4.011304"
     inkscape:cx="-1.1590763"
     inkscape:cy="29.220061"
     inkscape:document-units="px"
     inkscape:current-layer="layer1"
     showgrid="false"
     fit-margin-top="0"
     fit-margin-left="0"
     fit-margin-right="0"
     fit-margin-bottom="0"
     inkscape:window-width="1920"
     inkscape:window-height="1027"
     inkscape:window-x="-8"
     inkscape:window-y="-8"
     inkscape:window-maximized="1" />
  <metadata
     id="metadata7415">
    <rdf:RDF>
      <cc:Work
         rdf:about="">
        <dc:format>image/svg+xml</dc:format>
        <dc:type
           rdf:resource="http://purl.org/dc/dcmitype/StillImage" />
        <dc:title></dc:title>
      </cc:Work>
    </rdf:RDF>
  </metadata>
  <g
     inkscape:label="Layer 1"
     inkscape:groupmode="layer"
     id="layer1"
     transform="translate(-378.28354,-509.56528)">
    <rect
       style="display:inline;opacity:1;fill:#efeeeb;fill-opacity:1;fill-rule:evenodd;stroke:none;stroke-width:2;stroke-linecap:round;stroke-linejoin:miter;stroke-miterlimit:4;stroke-dasharray:none;stroke-opacity:1"
       id="rect4138"
       width="37.718662"
       height="62.736694"
       x="378.28354"
       y="509.56528" />
    <path
       style="fill:none;fill-rule:evenodd;stroke:#2c2c2c;stroke-width:1px;stroke-linecap:butt;stroke-linejoin:miter;stroke-opacity:0.85714287"
       d="m 381.77368,517.70626 c 5.22558,-0.6532 2.6488,-0.49859 7.72816,-0.49859 0.16619,0 0.33239,0 0.49859,0 0.16619,0 0.34994,-0.0743 0.49859,0 0.0743,0.0372 -0.0588,0.19053 0,0.24929 0.0588,0.0588 0.19054,-0.0588 0.24929,0 0.14899,0.14899 -0.26945,0.49859 0.2493,0.49859 0.33239,0 -0.41549,-0.58169 0.2493,-0.24929 0.29681,0.14841 0.34788,0.49859 0.24929,0.49859 -0.0831,0 -0.0372,-0.17497 0,-0.2493 0.13399,-0.26798 0.34994,-0.48774 0.49859,-0.74788 0.18438,-0.32267 0.29245,-0.68797 0.49859,-0.99718 0.0461,-0.0692 0,0.16619 0,0.24929 0,0.2493 0,0.49859 0,0.74789 0,0.41549 0,0.83098 0,1.24648 0,0.16619 -0.0526,0.34092 0,0.49859 0.0579,0.17374 0.30865,0.34426 0.49859,0.24929 0.10512,-0.0525 0.17282,-0.16007 0.2493,-0.24929 0.42238,-0.49278 0.78755,-1.03685 1.24648,-1.49578 0.28645,-0.28646 0.44088,-0.24929 0.74788,-0.24929 0.0831,0 0.17497,-0.0372 0.2493,0 0.23607,0.11803 0.39623,0.67442 0.74789,0.49859 1.83213,-0.91607 -0.59358,-0.13454 1.99436,-0.99718 0.0788,-0.0263 0.21213,-0.0743 0.24929,0 0.0743,0.14865 -0.0403,0.33735 0,0.49859 0.0451,0.18026 0.19054,0.32231 0.2493,0.49859 0.0526,0.15767 -0.11752,0.38107 0,0.49859 0.0588,0.0588 0.1662,0 0.2493,0 0.17339,0 1.15632,-0.0451 1.24647,0 1.03751,0.51875 -0.2665,-0.0172 0.2493,0.49859 0.18341,0.18341 0.44991,-0.20062 0.49859,-0.24929 0.41549,-0.4155 0.83098,-0.83099 1.24648,-1.24648 0.0831,-0.0831 0.19674,-0.14419 0.24929,-0.2493 0.0372,-0.0743 -0.0588,-0.19053 0,-0.24929 0.0588,-0.0588 0.19054,0.0588 0.2493,0 0.13139,-0.13139 0.1179,-0.3672 0.24929,-0.49859 0.0588,-0.0588 0.19054,-0.0588 0.2493,0 0.0588,0.0588 0,0.16619 0,0.24929 0,0.41549 0,0.83099 0,1.24648 0,0.0831 -0.0588,0.19053 0,0.24929 0.14373,0.14374 0.4963,-0.16543 0.74789,-0.24929 0.32504,-0.10835 0.66121,-0.1821 0.99718,-0.2493 0.1635,-0.0327 0.62123,0.0633 0.74788,0 0.10512,-0.0525 0.15528,-0.17878 0.2493,-0.24929 0.23969,-0.17977 0.53603,-0.28673 0.74789,-0.49859 0.13139,-0.13139 0.1179,-0.3672 0.24929,-0.49859 0.33239,-0.3324 0.2493,0.41549 0.2493,-0.2493"
       id="path7964"
       inkscape:connector-curvature="0" />
    <path
       style="fill:none;fill-rule:evenodd;stroke:#2c2c2c;stroke-width:1px;stroke-linecap:butt;stroke-linejoin:miter;stroke-opacity:0.85714287"
       d="m 381.52438,530.17103 c 1.53121,1.99437 0.79066,-1.49577 1.49577,-1.49577 0.0831,0 0,0.1662 0,0.2493 0,0.0831 0,0.16619 0,0.24929 0,0.0164 -0.006,1.73887 0,1.74507 0.0831,0.0831 0.18411,-0.15151 0.2493,-0.2493 1.67286,-2.50928 0.65876,-1.33896 2.24366,-3.24084 0.0752,-0.0903 0.13178,-0.24929 0.24929,-0.24929 0.0831,0 0,0.16619 0,0.24929 0,0.1662 -0.0326,0.33562 0,0.49859 0.0515,0.25768 0.18557,0.49296 0.2493,0.74789 0.31448,1.25793 0.2493,1.06946 0.2493,2.24366 0,0.1662 0,0.66479 0,0.49859 0,-0.97386 -0.0743,-0.0263 0.24929,-0.99718 0.27584,-0.82752 0.16504,-1.26581 0.74789,-1.99436 0.0863,-0.1079 0.64061,-0.35657 0.74788,-0.2493 0.0588,0.0588 -0.0263,0.17046 0,0.2493 0.0588,0.17627 0.22302,0.31464 0.2493,0.49859 0.067,0.4687 0,1.89793 0,2.49295 0,0.1662 0,0.33239 0,0.49859 0,0.0831 -0.0588,0.19054 0,0.2493 0.17193,0.17193 0.46614,-0.1844 0.49859,-0.2493 0.0974,-0.19471 0.28076,-1.02865 0.49859,-1.24648 0.36563,-0.36563 0.22437,0.47366 0.2493,0.4986 0.0588,0.0588 0.21213,0.0743 0.24929,0 1.50577,-3.01153 -1.90339,1.72203 1.49578,-2.24366 0.12092,-0.14109 0.1179,-0.3672 0.24929,-0.49859 0.0588,-0.0588 0.21213,-0.0743 0.2493,0 0.0743,0.14865 0,0.33239 0,0.49859 0,0.0831 -0.0588,0.19053 0,0.24929 0.0588,0.0588 0.16619,0 0.24929,0 0.0831,0 0.17497,0.0372 0.2493,0 0.23607,-0.11803 0.39622,-0.67442 0.74788,-0.49859 0.10512,0.0526 0.1662,0.1662 0.2493,0.2493 0.1662,0.16619 0.36821,0.30302 0.49859,0.49859 0.0461,0.0691 -0.0588,0.19053 0,0.24929 0.0588,0.0588 0.1662,0 0.2493,0 0.0831,0 0.19053,0.0588 0.24929,0 0.30364,-0.30364 0.11678,-0.55698 0.49859,-0.74788 0.39887,-0.19944 0.18282,0.11633 0.2493,0.24929 0.0526,0.10511 0.16619,0.1662 0.24929,0.2493 0.0831,0.0831 0.14419,0.19674 0.2493,0.24929 0.3737,0.18685 0.37419,-0.43614 0.74789,-0.24929 0.34808,0.17404 0.40672,0.72156 0.49859,0.99718 0.0831,0.24929 0.16619,0.49859 0.24929,0.74789 0.0831,0 0.19054,-0.0588 0.2493,0 0.0588,0.0588 -0.0588,0.19053 0,0.24929 0.0588,0.0588 0.16619,0 0.24929,0 0.39008,0 0.55627,0.0263 0.99718,-0.24929 0.45122,-0.28201 0.82648,-0.67052 1.24648,-0.99719 0.32797,-0.25509 0.68172,-0.47748 0.99718,-0.74788 0.44614,-0.3824 0.7764,-0.89392 1.24648,-1.24648 0.14865,-0.11149 0.34399,-0.14623 0.49859,-0.2493 0.0978,-0.0652 0.13178,-0.24929 0.2493,-0.24929 0.0831,0 0,0.16619 0,0.24929 0,0.2493 -0.0353,0.5011 0,0.74789 0.0485,0.33918 0.16619,0.66479 0.24929,0.99718 0.0831,0.4155 0.19674,0.82603 0.2493,1.24648 0.0309,0.24737 -0.0788,0.51138 0,0.74789 0.0263,0.0788 0.19054,0.0588 0.24929,0 0.0588,-0.0588 -0.0372,-0.17497 0,-0.2493 0.0526,-0.10511 0.19674,-0.14418 0.2493,-0.24929 0.71882,-1.43765 -0.32378,-0.0669 0.74789,-1.49578 0.057,-0.076 0.68458,-0.71624 0.74788,-0.74788 0.0743,-0.0372 0.19054,-0.0588 0.2493,0 0.0588,0.0588 -0.0588,0.19053 0,0.24929 0.0588,0.0588 0.1662,0 0.24929,0 0.0831,0 0.1662,0 0.2493,0 0.1662,0 0.33239,0 0.49859,0 0.0831,0 0.19054,-0.0588 0.2493,0 0.0588,0.0588 -0.0588,0.19054 0,0.2493 0.11752,0.11752 0.38107,-0.11752 0.49859,0 0.33239,0.33239 -0.4155,0.24929 0.24929,0.24929"
       id="path7966"
       inkscape:connector-curvature="0" />
    <path
       style="fill:none;fill-rule:evenodd;stroke:#2c2c2c;stroke-width:1px;stroke-linecap:butt;stroke-linejoin:miter;stroke-opacity:0.85714287"
       d="m 383.51875,537.6499 c 0,0.41549 -0.40309,1.1457 0,1.24647 0.63354,0.15839 3.97882,-1.85714 4.23802,-1.99436 0.65688,-0.34776 1.30427,-0.72114 1.99436,-0.99718 0.15431,-0.0617 0.34994,-0.0743 0.49859,0 0.0743,0.0372 0,0.1662 0,0.2493 0,0.41549 -0.0815,0.83905 0,1.24647 0.0364,0.18221 0.20423,0.31833 0.2493,0.49859 0.0403,0.16124 -0.0743,0.34994 0,0.49859 0.0372,0.0743 0.24929,-0.0831 0.24929,0 0,0.0831 -0.16619,0 -0.24929,0 0.1662,0 0.36563,-0.0997 0.49859,0 0.63484,0.47613 0.48745,1.09399 0.74789,1.74507 0.0437,0.10912 0.14418,0.19674 0.24929,0.2493 0.0743,0.0372 0.1662,0 0.2493,0 0.24929,0 0.50343,0.0489 0.74788,0 0.25768,-0.0515 0.51818,-0.12168 0.74789,-0.2493 0.52382,-0.29101 0.98194,-0.68888 1.49577,-0.99718 0.31867,-0.1912 0.67452,-0.31421 0.99719,-0.49859 0.26013,-0.14865 0.4799,-0.3646 0.74788,-0.49859 0.0743,-0.0372 0.19054,0.0588 0.2493,0 0.0588,-0.0588 -0.0588,-0.19054 0,-0.2493 0.13139,-0.13139 0.34398,-0.14622 0.49859,-0.24929 0.34571,-0.23048 0.70338,-0.45409 0.99718,-0.74789 0.21186,-0.21186 0.28673,-0.53602 0.49859,-0.74788 0.0588,-0.0588 0,0.16619 0,0.24929 0,0.2493 -0.0353,0.5011 0,0.74789 0.0151,0.10577 0.36944,1.55134 0.49859,1.74506 0.15547,0.2332 0.32647,-0.13454 0.49859,-0.24929 0.40317,-0.26878 0.83099,-0.49859 1.24648,-0.74789 0.41549,-0.33239 0.8135,-0.68791 1.24648,-0.99718 0.1512,-0.108 0.31278,-0.24929 0.49859,-0.24929 0.0831,0 0,0.16619 0,0.24929 0,0.2493 0,0.49859 0,0.74789 0,0.0831 0,0.1662 0,0.24929 0,0.0831 -0.0588,0.19054 0,0.2493 0.0588,0.0588 0.1662,0 0.24929,0 0.84219,0 1.14233,-0.72985 1.74507,-1.24648 0.22749,-0.19499 0.47991,-0.3646 0.74789,-0.49859 0.0743,-0.0372 0.1662,0 0.24929,0 0.2216,0 0.39591,-0.0588 0.4986,0.2493 0.0526,0.15766 -0.0403,0.33735 0,0.49859 0.0451,0.18026 0.16619,0.33239 0.24929,0.49859 0.0831,0.1662 0.11791,0.3672 0.2493,0.49859 0.0588,0.0588 0.16619,0 0.24929,0 0.0831,0 0.1662,0 0.2493,0 0.21106,0 0.86316,0.0447 0.99718,0 0.11149,-0.0372 0.15528,-0.17879 0.24929,-0.2493 0.2397,-0.17977 0.4986,-0.33239 0.74789,-0.49859"
       id="path7968"
       inkscape:connector-curvature="0" />
    <path
       style="fill:none;fill-rule:evenodd;stroke:#2c2c2c;stroke-width:0.36390981;stroke-linecap:butt;stroke-linejoin:miter;stroke-miterlimit:4;stroke-dasharray:none;stroke-opacity:0.85714287"
       d="m 384.76397,520.69492 c 0.33702,0.0848 0.66758,0.23895 1.01106,0.25437 1.54931,0.0696 3.10059,0 4.65089,0 1.14586,0 2.29174,0 3.43761,0 4.11165,0 8.22331,0 12.33496,0"
       id="path7972"
       inkscape:connector-curvature="0" />
  </g>
</svg>
